<svg width="17" height="15" viewBox="0 0 17 15" fill="none" xmlns="http://www.w3.org/2000/svg">
<path d="M3.21981 0.518555H13.9371C14.5931 0.518555 15.2221 0.811213 15.6859 1.33215C16.1498 1.85308 16.4103 2.55962 16.4103 3.29633V11.6297C16.4103 12.3664 16.1498 13.0729 15.6859 13.5939C15.2221 14.1148 14.5931 14.4074 13.9371 14.4074H3.21981C2.56387 14.4074 1.93479 14.1148 1.47097 13.5939C1.00715 13.0729 0.746582 12.3664 0.746582 11.6297V3.29633C0.746582 2.55962 1.00715 1.85308 1.47097 1.33215C1.93479 0.811213 2.56387 0.518555 3.21981 0.518555ZM3.21981 1.44448C2.8076 1.44448 2.44486 1.60189 2.16456 1.87967L8.57846 6.53707L14.9924 1.87967C14.7121 1.60189 14.3493 1.44448 13.9371 1.44448H3.21981ZM8.57846 7.65744L1.67816 2.62967C1.61221 2.83337 1.57099 3.06485 1.57099 3.29633V11.6297C1.57099 12.1208 1.7447 12.5918 2.05392 12.9391C2.36313 13.2864 2.78251 13.4815 3.21981 13.4815H13.9371C14.3744 13.4815 14.7938 13.2864 15.103 12.9391C15.4122 12.5918 15.5859 12.1208 15.5859 11.6297V3.29633C15.5859 3.06485 15.5447 2.83337 15.4788 2.62967L8.57846 7.65744Z" fill="#581845"/>
</svg>
