<svg width="22" height="16" viewBox="0 0 22 16" fill="none" xmlns="http://www.w3.org/2000/svg">
<path d="M4.82704 16.0002V7.75989L2.28404 5.42192L0.00366211 4.12451V14.546C0.00366211 15.3506 0.652367 16.0002 1.45071 16.0002H4.82704Z" fill="#4285F4"/>
<path d="M16.4031 16.0001H19.7794C20.5802 16.0001 21.2265 15.3481 21.2265 14.5459V4.12451L18.6436 5.61054L16.4031 7.7598V16.0001Z" fill="#34A853"/>
<path d="M4.82699 7.75984L4.48096 4.5401L4.82699 1.4585L10.615 5.82101L16.403 1.4585L16.7901 4.37373L16.403 7.75984L10.615 12.1224L4.82699 7.75984Z" fill="#EA4335"/>
<path d="M16.4031 1.45826V7.7596L21.2265 4.12422V2.18532C21.2265 0.387039 19.1838 -0.638108 17.7537 0.440358L16.4031 1.45826Z" fill="#FBBC04"/>
<path d="M0.00366211 4.12426L2.22202 5.79632L4.82704 7.75964V1.4583L3.47641 0.440396C2.04387 -0.638153 0.00366211 0.387077 0.00366211 2.18527V4.12418V4.12426Z" fill="#C5221F"/>
</svg>
