<svg width="14" height="13" viewBox="0 0 14 13" fill="none" xmlns="http://www.w3.org/2000/svg">
<path d="M7.84 1.00037C4.44667 0.90704 1.66667 3.63371 1.66667 7.00037H0.473333C0.173333 7.00037 0.0266667 7.36037 0.24 7.56704L2.1 9.43371C2.23333 9.56704 2.44 9.56704 2.57333 9.43371L4.43333 7.56704C4.4794 7.52004 4.51053 7.46046 4.52279 7.3958C4.53505 7.33114 4.5279 7.2643 4.50223 7.2037C4.47656 7.1431 4.43354 7.09146 4.37856 7.05527C4.32359 7.01909 4.25914 6.99999 4.19333 7.00037H3C3 4.40037 5.12 2.30037 7.73333 2.33371C10.2133 2.36704 12.3 4.45371 12.3333 6.93371C12.3667 9.54037 10.2667 11.667 7.66667 11.667C6.59333 11.667 5.6 11.3004 4.81333 10.6804C4.68564 10.5798 4.52543 10.5296 4.36318 10.5395C4.20092 10.5493 4.04794 10.6184 3.93333 10.7337C3.65333 11.0137 3.67333 11.487 3.98667 11.727C5.03408 12.5554 6.33131 13.0042 7.66667 13.0004C11.0333 13.0004 13.76 10.2204 13.6667 6.82704C13.58 3.70037 10.9667 1.08704 7.84 1.00037ZM7.5 4.33371C7.22667 4.33371 7 4.56037 7 4.83371V7.28704C7 7.52037 7.12667 7.74037 7.32667 7.86037L9.40667 9.09371C9.64667 9.23371 9.95333 9.15371 10.0933 8.92037C10.2333 8.68037 10.1533 8.37371 9.92 8.23371L8 7.09371V4.82704C8 4.56037 7.77333 4.33371 7.5 4.33371Z" fill="#581845"/>
</svg>
