<svg width="16" height="17" viewBox="0 0 16 17" fill="none" xmlns="http://www.w3.org/2000/svg">
<path d="M15.7804 2.04702L14.2164 0.449391C14.147 0.378294 14.0645 0.321886 13.9738 0.283397C13.883 0.244909 13.7856 0.225098 13.6874 0.225098C13.5891 0.225098 13.4917 0.244909 13.4009 0.283397C13.3102 0.321886 13.2277 0.378294 13.1583 0.449391L6.79556 6.98687L6.28041 9.26717C6.25847 9.37771 6.26077 9.49184 6.28717 9.60135C6.31356 9.71087 6.36339 9.81304 6.43306 9.90054C6.50274 9.98803 6.59053 10.0587 6.69012 10.1074C6.78971 10.156 6.89863 10.1816 7.00904 10.1821C7.06611 10.1886 7.12369 10.1886 7.18075 10.1821L9.43161 9.67488L15.7804 3.12791C15.85 3.05701 15.9052 2.97277 15.9429 2.88004C15.9806 2.7873 16 2.68787 16 2.58747C16 2.48706 15.9806 2.38763 15.9429 2.2949C15.9052 2.20216 15.85 2.11792 15.7804 2.04702ZM8.94895 8.79784L7.25037 9.18184L7.64485 7.46095L12.4343 2.53532L13.743 3.87221L8.94895 8.79784ZM14.2675 3.3365L12.9587 1.99961L13.6781 1.25058L14.9961 2.59695L14.2675 3.3365Z" fill="#581845"/>
<path d="M14.4583 14.9943H1.20486V1.45587H9.16898L10.3738 0.225098H1.20486C0.885311 0.225098 0.57885 0.354768 0.352895 0.585582C0.12694 0.816396 0 1.12945 0 1.45587V14.9943C0 15.3207 0.12694 15.6338 0.352895 15.8646C0.57885 16.0954 0.885311 16.2251 1.20486 16.2251H14.4583C14.7779 16.2251 15.0843 16.0954 15.3103 15.8646C15.5362 15.6338 15.6632 15.3207 15.6632 14.9943V5.76356L14.4583 6.99433V14.9943Z" fill="#581845"/>
</svg>
