<svg width="14" height="14" viewBox="0 0 14 14" fill="none" xmlns="http://www.w3.org/2000/svg">
<path d="M2.21053 0H11.7895C12.3757 0 12.938 0.294999 13.3526 0.820101C13.7671 1.3452 14 2.05739 14 2.8V11.2C14 11.9426 13.7671 12.6548 13.3526 13.1799C12.938 13.705 12.3757 14 11.7895 14H2.21053C1.62426 14 1.062 13.705 0.647448 13.1799C0.232894 12.6548 0 11.9426 0 11.2V2.8C0 2.05739 0.232894 1.3452 0.647448 0.820101C1.062 0.294999 1.62426 0 2.21053 0ZM2.21053 0.933333C1.84211 0.933333 1.51789 1.092 1.26737 1.372L7 6.06667L12.7326 1.372C12.4821 1.092 12.1579 0.933333 11.7895 0.933333H2.21053ZM7 7.196L0.832632 2.128C0.773684 2.33333 0.736842 2.56667 0.736842 2.8V11.2C0.736842 11.6951 0.892105 12.1699 1.16847 12.5199C1.44484 12.87 1.81968 13.0667 2.21053 13.0667H11.7895C12.1803 13.0667 12.5552 12.87 12.8315 12.5199C13.1079 12.1699 13.2632 11.6951 13.2632 11.2V2.8C13.2632 2.56667 13.2263 2.33333 13.1674 2.128L7 7.196Z" fill="#581845"/>
</svg>
