<svg width="50" height="50" viewBox="0 0 50 50" fill="none" xmlns="http://www.w3.org/2000/svg">
<g clip-path="url(#clip0_1628_239)">
<path d="M49.2647 26.1628C49.2676 25.7722 49.0684 25.408 48.7403 25.2039H48.7345L48.7143 25.1921L31.643 14.9363C31.5689 14.8855 31.4929 14.8396 31.414 14.7976C30.7548 14.4529 29.9716 14.4529 29.3125 14.7976C29.2336 14.8396 29.1566 14.8855 29.0835 14.9363L12.0121 25.1912L11.9919 25.2029C11.4704 25.532 11.3107 26.2283 11.635 26.7576C11.7302 26.9138 11.862 27.0437 12.0189 27.1365L29.0893 37.3923C29.1634 37.4421 29.2394 37.489 29.3183 37.531C29.9774 37.8757 30.7606 37.8757 31.4197 37.531C31.4986 37.489 31.5746 37.4431 31.6487 37.3923L48.7191 27.1365C49.0607 26.9353 49.2686 26.5632 49.2647 26.1628Z" fill="#0A2767"/>
<path d="M14.0029 19.3154H25.2058V29.7373H14.0029V19.3154ZM46.9737 8.7207V3.95312C47.0007 2.76074 46.0712 1.77246 44.8963 1.74414H15.8253C14.6505 1.77246 13.721 2.76172 13.7479 3.95312V8.7207L30.9329 13.3721L46.9737 8.7207Z" fill="#0364B8"/>
<path d="M13.7479 8.7207H25.2049V19.1855H13.7479V8.7207Z" fill="#0078D4"/>
<path d="M36.6618 8.7207H25.2049V19.1855L36.6618 29.6504H46.9728V19.1865L36.6618 8.7207Z" fill="#28A8EA"/>
<path d="M25.2049 19.1875H36.6618V29.6523H25.2049V19.1875Z" fill="#0078D4"/>
<path d="M25.2049 29.6504H36.6618V40.1152H25.2049V29.6504Z" fill="#0364B8"/>
<path d="M14.0029 29.7383H25.2058V39.2129H14.0029V29.7383Z" fill="#14447D"/>
<path d="M36.6618 29.6504H46.9728V40.1152H36.6618V29.6504Z" fill="#0078D4"/>
<path d="M48.7403 27.0732L48.7182 27.085L31.6477 36.8291C31.5737 36.876 31.4976 36.9199 31.4187 36.959C31.1291 37.0986 30.8135 37.1787 30.4931 37.1914L29.5607 36.6377C29.4818 36.5977 29.4058 36.5527 29.3317 36.5039L12.0314 26.4834H12.0237L11.4579 26.1621V45.8887C11.4665 47.2051 12.525 48.2647 13.8211 48.2559H46.9381C46.9573 48.2559 46.9746 48.2461 46.9958 48.2461C47.27 48.2285 47.5395 48.1709 47.7973 48.0762C47.9089 48.0283 48.0167 47.9717 48.1197 47.9063C48.1966 47.8623 48.3285 47.7656 48.3285 47.7656C48.9154 47.3252 49.2628 46.6289 49.2656 45.8877V26.1631C49.2647 26.54 49.0636 26.8877 48.7403 27.0732Z" fill="url(#paint0_linear_1628_239)"/>
<path opacity="0.5" d="M48.3478 26.0859V27.2949L30.498 39.7686L12.0179 26.4932C12.0179 26.4863 12.0131 26.4814 12.0064 26.4814L10.311 25.4463V24.5742L11.0095 24.5625L12.4875 25.4229L12.5221 25.4346L12.6482 25.5156C12.6482 25.5156 30.0169 35.5742 30.0631 35.5967L30.7279 35.9922C30.7857 35.9688 30.8424 35.9453 30.9117 35.9229C30.9464 35.8994 48.1544 26.0742 48.1544 26.0742L48.3478 26.0859Z" fill="#0A2767"/>
<path d="M48.7403 27.0723L48.7182 27.085L31.6477 36.8291C31.5737 36.876 31.4976 36.9199 31.4187 36.959C30.7558 37.2881 29.9803 37.2881 29.3173 36.959C29.2384 36.9199 29.1624 36.876 29.0883 36.8291L12.0179 27.085L11.9977 27.0723C11.6676 26.8906 11.4617 26.542 11.4579 26.1621V45.8877C11.4665 47.2031 12.524 48.2637 13.8201 48.2549H46.9034C48.1995 48.2637 49.2579 47.2031 49.2656 45.8877V26.1621C49.2647 26.5391 49.0636 26.8867 48.7403 27.0723Z" fill="#1490DF"/>
<path opacity="0.1" d="M31.896 36.6875L31.6401 36.833C31.566 36.8809 31.49 36.9248 31.4111 36.9648C31.1291 37.1055 30.8232 37.1875 30.5104 37.207L37.0053 45.002L48.3352 47.7725C48.646 47.5342 48.8923 47.2217 49.054 46.8623L31.896 36.6875Z" fill="#333333"/>
<path opacity="0.05" d="M33.0535 36.0254L31.641 36.8311C31.5669 36.8789 31.4909 36.9229 31.412 36.9629C31.1301 37.1035 30.8241 37.1855 30.5114 37.2051L33.5539 45.7197L48.3391 47.7676C48.9212 47.3242 49.2647 46.6279 49.2647 45.8887V45.6338L33.0535 36.0254Z" fill="#333333"/>
<path d="M13.8518 48.2549H46.8996C47.4086 48.2578 47.9041 48.0947 48.314 47.79L29.5588 36.6396C29.4799 36.5996 29.4039 36.5547 29.3298 36.5059L12.0294 26.4854H12.0217L11.4569 26.1621V45.8203C11.4559 47.1631 12.5278 48.2539 13.8518 48.2549Z" fill="#28A8EA"/>
<path opacity="0.1" d="M27.4968 13.1777V37.9805C27.4949 38.8496 26.9734 39.6318 26.1795 39.957C25.9332 40.0645 25.6686 40.1201 25.4002 40.1201H11.4569V12.21H13.7479V11.0469H25.3992C26.5577 11.0508 27.4939 12.0029 27.4968 13.1777Z" fill="#333333"/>
<path opacity="0.2" d="M26.3508 14.3409V39.1436C26.3537 39.4249 26.295 39.7022 26.1786 39.9571C25.8601 40.753 25.1 41.2755 24.2542 41.2794H11.4569V12.2091H24.2542C24.5862 12.2061 24.9143 12.2901 25.2048 12.4532C25.9073 12.8126 26.3508 13.543 26.3508 14.3409Z" fill="#333333"/>
<path opacity="0.2" d="M26.3508 14.3409V36.8175C26.3451 37.9913 25.4108 38.9434 24.2542 38.9532H11.4569V12.2091H24.2542C24.5862 12.2061 24.9143 12.2901 25.2048 12.4532C25.9073 12.8126 26.3508 13.543 26.3508 14.3409Z" fill="#333333"/>
<path opacity="0.2" d="M25.2048 14.3408V36.8174C25.2039 37.9932 24.2667 38.9473 23.1082 38.9531H11.4569V12.209H23.1082C24.2667 12.21 25.2058 13.1631 25.2048 14.3389C25.2048 14.3398 25.2048 14.3398 25.2048 14.3408Z" fill="#333333"/>
<path d="M2.10049 12.209H23.1053C24.2648 12.209 25.2058 13.1631 25.2058 14.3408V35.6592C25.2058 36.8359 24.2658 37.791 23.1053 37.791H2.10049C0.940071 37.791 0 36.8359 0 35.6592V14.3408C0 13.1641 0.940071 12.209 2.10049 12.209Z" fill="url(#paint1_linear_1628_239)"/>
<path d="M6.56416 21.1486C7.08182 20.0294 7.91701 19.0929 8.96293 18.4591C10.1214 17.7863 11.4406 17.4503 12.7742 17.4894C14.0106 17.462 15.2307 17.7804 16.3016 18.4093C17.3081 19.0187 18.1192 19.9113 18.635 20.9786C19.1979 22.1554 19.4779 23.4503 19.4528 24.7579C19.4798 26.1242 19.1921 27.4786 18.6109 28.7111C18.0827 29.8175 17.2456 30.7413 16.2054 31.3703C15.0931 32.0187 13.8278 32.3449 12.5462 32.3146C11.2828 32.3458 10.0358 32.0236 8.9408 31.3839C7.92567 30.7736 7.10492 29.88 6.5757 28.8097C6.00993 27.6505 5.72608 26.3693 5.74821 25.0763C5.72512 23.7218 6.00416 22.379 6.56416 21.1486ZM9.12073 27.463C9.39688 28.171 9.86451 28.7843 10.4707 29.2326C11.0875 29.6701 11.8264 29.8956 12.5789 29.8771C13.3804 29.9093 14.1704 29.6759 14.8295 29.212C15.428 28.7648 15.8831 28.1495 16.14 27.4425C16.4277 26.6525 16.5691 25.8156 16.5585 24.9738C16.5672 24.1242 16.4344 23.2785 16.164 22.4738C15.9254 21.7472 15.4847 21.1066 14.8949 20.63C14.2521 20.1447 13.4651 19.8976 12.6645 19.9327C11.8957 19.9122 11.1404 20.1398 10.5073 20.5831C9.89145 21.0333 9.4142 21.6525 9.13227 22.3683C8.50684 24.0079 8.50299 25.8253 9.12265 27.4669L9.12073 27.463Z" fill="white"/>
<path d="M36.6618 8.7207H46.9728V19.1855H36.6618V8.7207Z" fill="#50D9FF"/>
</g>
<defs>
<linearGradient id="paint0_linear_1628_239" x1="30.3607" y1="26.1628" x2="30.3607" y2="48.2559" gradientUnits="userSpaceOnUse">
<stop stop-color="#35B8F1"/>
<stop offset="1" stop-color="#28A8EA"/>
</linearGradient>
<linearGradient id="paint1_linear_1628_239" x1="4.37865" y1="10.5439" x2="21.1947" y2="39.2404" gradientUnits="userSpaceOnUse">
<stop stop-color="#1784D9"/>
<stop offset="0.5" stop-color="#107AD5"/>
<stop offset="1" stop-color="#0A63C9"/>
</linearGradient>
<clipPath id="clip0_1628_239">
<rect width="49.2647" height="50" fill="white"/>
</clipPath>
</defs>
</svg>
