<svg width="16" height="16" viewBox="0 0 16 16" fill="none" xmlns="http://www.w3.org/2000/svg">
<path d="M12.3333 11.8667V10.3333C12.3333 10.2444 12.3 10.1667 12.2333 10.1C12.1667 10.0333 12.0889 10 12 10C11.9111 10 11.8333 10.0333 11.7667 10.1C11.7 10.1667 11.6667 10.2444 11.6667 10.3333V11.8667C11.6667 11.9556 11.6833 12.0389 11.7167 12.1167C11.75 12.1944 11.8 12.2667 11.8667 12.3333L12.8833 13.35C12.95 13.4167 13.0278 13.45 13.1167 13.45C13.2056 13.45 13.2833 13.4167 13.35 13.35C13.4167 13.2833 13.45 13.2056 13.45 13.1167C13.45 13.0278 13.4167 12.95 13.35 12.8833L12.3333 11.8667ZM3.33333 14C2.96667 14 2.65267 13.8693 2.39133 13.608C2.13 13.3467 1.99956 13.0329 2 12.6667V3.33333C2 2.96667 2.13067 2.65267 2.392 2.39133C2.65333 2.13 2.96711 1.99956 3.33333 2H12.6667C13.0333 2 13.3473 2.13067 13.6087 2.392C13.87 2.65333 14.0004 2.96711 14 3.33333V7.8C13.7889 7.7 13.5722 7.61378 13.35 7.54134C13.1278 7.46889 12.9 7.41622 12.6667 7.38333V3.33333H3.33333V12.6667H7.36667C7.4 12.9111 7.45289 13.1444 7.52533 13.3667C7.59778 13.5889 7.68378 13.8 7.78333 14H3.33333ZM3.33333 12V12.6667V3.33333V7.38333V7.33333V12ZM4.66667 10.6667C4.66667 10.8556 4.73067 11.014 4.85867 11.142C4.98667 11.27 5.14489 11.3338 5.33333 11.3333H7.38333C7.41667 11.1 7.46956 10.8722 7.542 10.65C7.61445 10.4278 7.69489 10.2111 7.78333 10H5.33333C5.14445 10 4.986 10.064 4.858 10.192C4.73 10.32 4.66622 10.4782 4.66667 10.6667ZM4.66667 8C4.66667 8.18889 4.73067 8.34733 4.85867 8.47534C4.98667 8.60333 5.14489 8.66711 5.33333 8.66667H8.73334C9.08889 8.33333 9.48622 8.05556 9.92533 7.83333C10.3644 7.61111 10.8338 7.46111 11.3333 7.38333C11.2333 7.36111 11.1222 7.34711 11 7.34133C10.8778 7.33556 10.7667 7.33289 10.6667 7.33333H5.33333C5.14445 7.33333 4.986 7.39734 4.858 7.52533C4.73 7.65333 4.66622 7.81156 4.66667 8ZM4.66667 5.33333C4.66667 5.52222 4.73067 5.68067 4.85867 5.80867C4.98667 5.93667 5.14489 6.00045 5.33333 6H10.6667C10.8556 6 11.014 5.936 11.142 5.808C11.27 5.68 11.3338 5.52178 11.3333 5.33333C11.3333 5.14445 11.2693 4.986 11.1413 4.858C11.0133 4.73 10.8551 4.66622 10.6667 4.66667H5.33333C5.14445 4.66667 4.986 4.73067 4.858 4.85867C4.73 4.98667 4.66622 5.14489 4.66667 5.33333ZM12 15.3333C11.0778 15.3333 10.2916 15.0082 9.64133 14.358C8.99111 13.7078 8.66622 12.9218 8.66667 12C8.66667 11.0778 8.99178 10.2916 9.642 9.64133C10.2922 8.99111 11.0782 8.66622 12 8.66667C12.9222 8.66667 13.7084 8.99178 14.3587 9.642C15.0089 10.2922 15.3338 11.0782 15.3333 12C15.3333 12.9222 15.0082 13.7084 14.358 14.3587C13.7078 15.0089 12.9218 15.3338 12 15.3333Z" fill="white"/>
</svg>
