<svg width="16" height="16" viewBox="0 0 16 16" fill="none" xmlns="http://www.w3.org/2000/svg">
<path d="M15.7804 1.82192L14.2164 0.224293C14.147 0.153196 14.0645 0.096788 13.9738 0.0582998C13.883 0.0198116 13.7856 0 13.6874 0C13.5891 0 13.4917 0.0198116 13.4009 0.0582998C13.3102 0.096788 13.2277 0.153196 13.1583 0.224293L6.79556 6.76178L6.28041 9.04207C6.25847 9.15261 6.26077 9.26674 6.28717 9.37625C6.31356 9.48577 6.36339 9.58795 6.43306 9.67544C6.50274 9.76293 6.59053 9.83356 6.69012 9.88225C6.78971 9.93095 6.89863 9.95649 7.00904 9.95704C7.06611 9.96346 7.12369 9.96346 7.18075 9.95704L9.43161 9.44978L15.7804 2.90281C15.85 2.83191 15.9052 2.74768 15.9429 2.65494C15.9806 2.5622 16 2.46278 16 2.36237C16 2.26196 15.9806 2.16254 15.9429 2.0698C15.9052 1.97706 15.85 1.89283 15.7804 1.82192ZM8.94895 8.57274L7.25037 8.95674L7.64485 7.23585L12.4343 2.31022L13.743 3.64711L8.94895 8.57274ZM14.2675 3.11141L12.9587 1.77452L13.6781 1.02548L14.9961 2.37185L14.2675 3.11141Z" fill="#581845"/>
<path d="M14.4583 14.7692H1.20486V1.23077H9.16898L10.3738 0H1.20486C0.885311 0 0.57885 0.12967 0.352895 0.360484C0.12694 0.591298 0 0.904349 0 1.23077V14.7692C0 15.0957 0.12694 15.4087 0.352895 15.6395C0.57885 15.8703 0.885311 16 1.20486 16H14.4583C14.7779 16 15.0843 15.8703 15.3103 15.6395C15.5362 15.4087 15.6632 15.0957 15.6632 14.7692V5.53846L14.4583 6.76923V14.7692Z" fill="#581845"/>
</svg>
