<svg width="24" height="24" viewBox="0 0 24 24" fill="none" xmlns="http://www.w3.org/2000/svg">
<path d="M12.973 16C12.973 17.2686 11.8184 18.2857 10.3784 18.2857C8.93838 18.2857 7.78378 17.2686 7.78378 16C7.78378 14.7314 8.95135 13.7143 10.3784 13.7143C11.8054 13.7143 12.973 14.7429 12.973 16ZM2.59459 21.7143V10.2857H18.1622V13.8171C18.5903 13.76 19.0184 13.7143 19.4595 13.7143C19.9005 13.7143 20.3286 13.76 20.7568 13.8171V10.2857C20.7568 9.67951 20.4834 9.09813 19.9968 8.66947C19.5102 8.24082 18.8503 8 18.1622 8H16.8649V5.71429C16.8649 2.56 13.9589 0 10.3784 0C6.79784 0 3.89189 2.56 3.89189 5.71429H6.48649C6.48649 3.81714 8.22486 2.28571 10.3784 2.28571C12.5319 2.28571 14.2703 3.81714 14.2703 5.71429V8H2.59459C1.90647 8 1.24652 8.24082 0.759939 8.66947C0.273358 9.09813 0 9.67951 0 10.2857V21.7143C0 22.3205 0.273358 22.9019 0.759939 23.3305C1.24652 23.7592 1.90647 24 2.59459 24H12.7265C12.2724 23.3029 11.9611 22.5371 11.7924 21.7143H2.59459ZM22.4951 16.96L17.8378 21.0629L15.7751 19.2457L14.2703 20.5714L17.8378 24L24 18.5714L22.4951 16.96Z" fill="#00BE4B"/>
</svg>
