<svg width="16" height="13" viewBox="0 0 16 13" fill="none" xmlns="http://www.w3.org/2000/svg">
<path d="M1.58375 12.67C1.14822 12.67 0.77551 12.5151 0.465623 12.2052C0.155208 11.8948 0 11.5218 0 11.0863V1.58375C0 1.14822 0.155208 0.775509 0.465623 0.465622C0.77551 0.155207 1.14822 0 1.58375 0H14.2538C14.6893 0 15.0623 0.155207 15.3727 0.465622C15.6826 0.775509 15.8375 1.14822 15.8375 1.58375V11.0863C15.8375 11.5218 15.6826 11.8948 15.3727 12.2052C15.0623 12.5151 14.6893 12.67 14.2538 12.67H1.58375ZM14.2538 3.1675L8.33448 6.86952C8.26849 6.90911 8.19907 6.93867 8.12622 6.95821C8.0539 6.97827 7.98474 6.9883 7.91875 6.9883C7.85276 6.9883 7.7836 6.97827 7.71128 6.95821C7.63843 6.93867 7.56901 6.90911 7.50302 6.86952L1.58375 3.1675V11.0863H14.2538V3.1675ZM7.91875 5.54313L14.2538 1.58375H1.58375L7.91875 5.54313ZM1.58375 3.36547V2.19745V2.21725V2.20696V3.36547Z" fill="#581845"/>
</svg>
